<?xml version="1.0" encoding="UTF-8"?>
<svg width="39px" height="41px" viewBox="0 0 39 41" version="1.1" xmlns="http://www.w3.org/2000/svg" xmlns:xlink="http://www.w3.org/1999/xlink">
    <title>Group 14</title>
    <defs>
        <linearGradient x1="85.2979613%" y1="85.4927727%" x2="14.6889702%" y2="14.4940867%" id="linearGradient-1">
            <stop stop-color="#E65C00" offset="0%"></stop>
            <stop stop-color="#F9D423" offset="100%"></stop>
        </linearGradient>
    </defs>
    <g id="Final-screens" stroke="none" stroke-width="1" fill="none" fill-rule="evenodd">
        <g id="Subscription-000" transform="translate(-196.000000, -365.000000)" fill-rule="nonzero">
            <g id="Group-14" transform="translate(196.000000, 365.670975)">
                <polygon id="Path" fill="url(#linearGradient-1)" points="39 19.8290253 36.9766074 21.679091 38.5769733 23.9032697 36.2171981 25.2921002 37.3180868 27.8032697 34.7187663 28.6642421 35.2743074 31.3547809 32.5577627 31.6520213 32.5475693 34.3989333 29.8259279 34.1221922 29.25 36.8127309 26.6455829 35.9722579 25.5243074 38.4783025 23.1543387 37.1150962 21.5386827 39.3290253 19.5 37.4943341 17.4613173 39.3290253 15.8456613 37.1150962 13.4705959 38.4783025 12.3493204 35.9722579 9.74490329 36.8127309 9.16897543 34.1221922 6.45243074 34.3989333 6.44223732 31.6520213 3.72059592 31.3547809 4.27613696 28.6642421 1.68191323 27.8032697 2.78280188 25.2921002 0.42302666 23.9032697 2.02339258 21.679091 0 19.8290253 2.02339258 17.9789596 0.42302666 15.749656 2.78280188 14.3659504 1.68191323 11.849656 4.28123366 10.9938085 3.72569263 8.30326969 6.44223732 8.00602921 6.45243074 5.25911725 9.17407214 5.53073355 9.75 2.84531962 12.3493204 3.68579268 13.4705959 1.17462317 15.8456613 2.54295431 17.4613173 0.329025271 19.5 2.15859163 21.5386827 0.329025271 23.1543387 2.54295431 25.5243074 1.17462317 26.6455829 3.68579268 29.25 2.84531962 29.8259279 5.53073355 32.5475693 5.25911725 32.5577627 8.00602921 35.2743074 8.30326969 34.7187663 10.9938085 37.3180868 11.849656 36.2171981 14.3659504 38.5769733 15.749656 36.9766074 17.9789596"></polygon>
                <text id="50%" fill="#FFFFFF" font-family="NotoSans-Bold, Noto Sans" font-size="12" font-weight="bold">
                    <tspan x="8" y="20.3290253">50%</tspan>
                </text>
                <text id="Off" fill="#FFFFFF" font-family="Muli-SemiBold, Muli" font-size="8" font-weight="500">
                    <tspan x="13" y="31.3290253">Off</tspan>
                </text>
            </g>
        </g>
    </g>
</svg>