<svg id="Layer_1" data-name="Layer 1" xmlns="http://www.w3.org/2000/svg" viewBox="0 0 480 480"><title>24 Dec Icons</title><rect width="480" height="480" fill="none"/><path d="M341.3,401.5H138.7a10,10,0,0,1,0-20H341.3a10,10,0,0,1,0,20Z" fill="#ccc"/><path d="M400.05,343.1H80a40,40,0,0,1-39.9-39.9V118.4A40,40,0,0,1,80,78.5H400.1A40,40,0,0,1,440,118.4V303.2a39.87,39.87,0,0,1-39.86,39.9Z" fill="#ccc"/><path d="M80,98.4a19.9,19.9,0,0,0-19.9,19.88V303.1A19.9,19.9,0,0,0,80,323H400.1A19.9,19.9,0,0,0,420,303.12V118.3a19.9,19.9,0,0,0-19.88-19.9H80Z" fill="#c03"/><path d="M216.85,154.7c-7.3,0-12.8,4.5-12.8,15.3v27.9h-37.5V170c0-10.8-5.5-15.3-12.8-15.3-7.6,0-12.8,4.5-12.8,15.3v81.2c0,11,5.2,15.5,12.8,15.5,7.3,0,12.8-4.5,12.8-15.5V221.7h37.5v29.5c0,11,5.5,15.5,12.8,15.5,7.6,0,12.8-4.5,12.8-15.5V170C229.55,159.3,224.35,154.7,216.85,154.7Z" fill="#ccc"/><path d="M323.35,170.6c-9.8-10.5-24.2-15.8-43.3-15.8h-19.5c-7.7,0-12.3,1.8-12.3,10.7v90.7c0,8.9,4.5,10.7,12.3,10.7h17c21.3,0,37-5.2,46.8-15.3,10-10.2,14.9-23.2,14.7-38.9C338.55,194.9,333.05,181,323.35,170.6ZM280.45,243h-6.6V178.1H281c22.1,0,32.4,12.1,32.4,34.5C313.35,232.5,302.85,243,280.45,243Z" fill="#ccc"/></svg>