<svg viewBox="0 0 480 480">
<path d="M382,97.49C344,60.75,294,40,240.75,40,87.92,40-8,205.58,68.27,337.3L40,440l105.58-27.54c46,24.85,83.68,22.65,95.27,24.12,177.21,0,265.43-214.4,140.9-338.44Z" fill="#fff"/>
<path d="M241.11,402.51h-.36c-53,0-86.92-25.12-90.25-26.57L88,392.18l16.75-60.75-4-6.25A164.44,164.44,0,0,1,75.5,237.52C75.5,91,254.58,17.69,358.21,121.27,461.59,223.77,389,402.51,241.11,402.51Z" fill="#4caf50"/>
<path d="M331.78,278.45l-.15,1.25c-5-2.5-29.45-14.45-34-16.1-10.22-3.78-7.33-.6-26.95,21.87-2.92,3.25-5.82,3.5-10.77,1.25-5-2.5-21.05-7.75-40.05-24.75-14.8-13.25-24.73-29.5-27.66-34.5-4.89-8.44,5.33-9.64,14.63-27.24,1.67-3.5.82-6.25-.42-8.73s-11.2-27-15.36-36.77c-4-9.73-8.12-8.5-11.2-8.5-9.6-.83-16.62-.7-22.8,5.74-26.9,29.56-20.12,60.06,2.9,92.5,45.23,59.2,69.33,70.1,113.4,85.23,11.9,3.78,22.75,3.25,31.33,2,9.57-1.52,29.45-12,33.6-23.77s4.25-21.5,3-23.75-4.5-3.5-9.5-5.75Z" fill="#fff"/>
<rect fill="none"/>
</svg>